<?xml version="1.0" standalone="no"?>
<!DOCTYPE svg PUBLIC "-//W3C//DTD SVG 20010904//EN"
 "http://www.w3.org/TR/2001/REC-SVG-20010904/DTD/svg10.dtd">
<svg version="1.0" xmlns="http://www.w3.org/2000/svg"
 width="512.000000pt" height="512.000000pt" viewBox="0 0 512.000000 512.000000"
 preserveAspectRatio="xMidYMid meet">

<g transform="translate(0.000000,512.000000) scale(0.100000,-0.100000)"
fill="#000000" stroke="none">
<path d="M3998 5099 c-43 -22 -78 -81 -78 -129 0 -45 35 -107 73 -127 28 -16
69 -19 321 -23 l289 -5 -457 -447 -458 -447 -51 38 c-264 194 -627 293 -930
252 -83 -11 -268 -54 -290 -68 -5 -3 22 -35 60 -72 38 -36 90 -90 115 -119
l46 -52 79 11 c230 33 496 -28 701 -161 225 -145 378 -361 455 -640 29 -109
29 -371 0 -480 -56 -204 -147 -366 -282 -501 -320 -319 -804 -398 -1206 -196
-197 99 -375 278 -473 478 -138 283 -147 559 -28 857 l35 87 -42 43 c-23 24
-75 66 -116 93 l-74 50 -22 -38 c-36 -64 -93 -203 -115 -283 -126 -452 -1
-931 335 -1279 200 -207 420 -331 696 -392 84 -19 134 -23 264 -24 181 0 263
12 415 61 212 68 371 166 536 329 202 199 322 421 381 705 25 119 24 383 -1
499 -40 188 -103 337 -208 494 l-66 97 457 447 456 446 5 -289 c4 -252 7 -293
23 -321 20 -38 82 -73 127 -73 50 0 107 35 130 80 19 38 20 58 20 521 0 480 0
481 -22 521 -14 24 -38 48 -60 59 -35 18 -65 19 -520 19 -461 -1 -485 -2 -520
-21z"/>
<path d="M1210 4214 c-222 -28 -435 -106 -620 -229 -96 -64 -291 -259 -355
-355 -102 -154 -174 -326 -212 -510 -21 -104 -24 -371 -5 -472 81 -432 336
-776 719 -971 124 -63 263 -110 381 -128 l82 -13 0 -313 0 -313 -240 0 c-222
0 -244 -2 -280 -20 -45 -23 -80 -80 -80 -130 0 -50 35 -107 80 -130 36 -18 58
-20 280 -20 l240 0 0 -245 c0 -227 2 -249 20 -285 23 -45 80 -80 130 -80 50 0
107 35 130 80 18 36 20 58 20 285 l0 245 240 0 c222 0 244 2 280 20 45 23 80
80 80 130 0 50 -35 107 -80 130 -36 18 -58 20 -280 20 l-240 0 0 314 0 313 53
6 c47 6 189 39 227 53 10 4 -5 24 -56 72 -38 37 -91 91 -116 120 l-46 52 -79
-11 c-102 -15 -277 -5 -376 20 -392 101 -670 380 -780 781 -29 109 -29 371 0
480 36 129 80 231 143 328 181 280 488 459 820 479 501 29 948 -307 1081 -813
20 -76 24 -111 23 -239 -1 -167 -15 -237 -79 -393 l-35 -86 43 -44 c23 -24 75
-66 116 -93 l74 -50 22 38 c68 121 126 294 150 453 67 435 -118 911 -470 1210
-176 149 -384 251 -605 295 -74 15 -333 27 -400 19z"/>
</g>
</svg>
