<svg width="2150" height="2150" viewBox="0 0 2150 2150" fill="none" xmlns="http://www.w3.org/2000/svg">
<path fill-rule="evenodd" clip-rule="evenodd" d="M1719.15 1621.04C1563.28 1801.63 1332.63 1915.95 1075.26 1915.95C827.464 1915.95 604.434 1809.98 449.067 1640.91C424.677 1667.41 310.303 1768.19 237.797 1780.85C177.209 1791.43 188.509 1760.42 201.733 1743.59C310.492 1608.84 339.493 1524.96 341.108 1494.88C303.672 1430.94 274.36 1361.67 254.586 1288.5L255.259 1295C149.121 1388.52 123.965 1451.19 107.417 1492.41C101.67 1506.73 96.9616 1518.46 90.2594 1528C69.4594 1557.6 52.2594 1540.33 46.2594 1528C-20.7827 1404.17 135.417 1160 225.442 1048.69C234.914 587.749 611.763 217 1075.26 217C1361.11 217 1614.01 358.016 1768.09 574.237C1828.26 514.469 1944.1 447.508 2083.54 477.079C2122.33 485.306 2147.94 542.239 2062.45 548.438C2001.35 561.934 1886.31 645.061 1858.27 735.355C1901.4 837.109 1925.26 949.006 1925.26 1066.47C1925.26 1182.8 1901.86 1293.66 1859.52 1394.62C1895.01 1507.72 1964.93 1748.26 1989.26 1876C1994.93 1910.67 1989.46 1965.8 1922.26 1909C1857.1 1853.92 1762.23 1698.5 1719.15 1621.04Z" fill="white"/>
<path d="M1719.15 1621.04L1719.59 1620.8L1719.24 1620.17L1718.77 1620.71L1719.15 1621.04ZM449.067 1640.91L449.435 1640.57L449.067 1640.17L448.699 1640.57L449.067 1640.91ZM237.797 1780.85L237.883 1781.34L237.883 1781.34L237.797 1780.85ZM201.733 1743.59L201.344 1743.28L201.34 1743.28L201.733 1743.59ZM341.108 1494.88L341.607 1494.9L341.616 1494.75L341.54 1494.62L341.108 1494.88ZM254.586 1288.5L255.068 1288.37L254.088 1288.55L254.586 1288.5ZM255.259 1295L255.59 1295.38L255.783 1295.2L255.757 1294.95L255.259 1295ZM107.417 1492.41L107.881 1492.6L107.881 1492.6L107.417 1492.41ZM90.2594 1528L90.6685 1528.29L90.6685 1528.29L90.2594 1528ZM46.2594 1528L46.709 1527.78L46.7042 1527.77L46.6991 1527.76L46.2594 1528ZM225.442 1048.69L225.831 1049L225.938 1048.87L225.942 1048.7L225.442 1048.69ZM1768.09 574.237L1767.68 574.527L1768.03 575.006L1768.44 574.591L1768.09 574.237ZM2083.54 477.079L2083.43 477.568L2083.43 477.568L2083.54 477.079ZM2062.45 548.438L2062.41 547.939L2062.38 547.941L2062.34 547.949L2062.45 548.438ZM1858.27 735.355L1857.79 735.207L1857.73 735.381L1857.8 735.55L1858.27 735.355ZM1859.52 1394.62L1859.06 1394.43L1858.99 1394.59L1859.04 1394.77L1859.52 1394.62ZM1989.26 1876L1989.75 1875.92L1989.75 1875.91L1989.26 1876ZM1922.26 1909L1921.94 1909.38L1921.94 1909.38L1922.26 1909ZM1075.26 1916.45C1332.78 1916.45 1563.57 1802.07 1719.53 1621.37L1718.77 1620.71C1562.99 1801.2 1332.48 1915.45 1075.26 1915.45V1916.45ZM448.698 1641.25C604.156 1810.41 827.318 1916.45 1075.26 1916.45V1915.45C827.609 1915.45 604.711 1809.54 449.435 1640.57L448.698 1641.25ZM237.883 1781.34C256.087 1778.16 276.886 1769.46 298.206 1757.81C319.532 1746.15 341.408 1731.53 361.773 1716.47C402.496 1686.37 437.213 1654.53 449.434 1641.25L448.699 1640.57C436.531 1653.79 401.866 1685.59 361.178 1715.67C340.837 1730.71 319 1745.31 297.727 1756.93C276.447 1768.56 255.759 1777.21 237.711 1780.36L237.883 1781.34ZM201.34 1743.28C198.012 1747.52 194.797 1752.65 192.802 1757.82C190.812 1762.97 190.008 1768.24 191.615 1772.67C193.237 1777.14 197.262 1780.64 204.629 1782.34C211.978 1784.05 222.709 1783.99 237.883 1781.34L237.711 1780.36C222.591 1783 212.014 1783.03 204.855 1781.37C197.713 1779.71 194.029 1776.39 192.556 1772.33C191.068 1768.23 191.781 1763.24 193.735 1758.18C195.685 1753.13 198.841 1748.08 202.126 1743.9L201.34 1743.28ZM340.609 1494.85C339.807 1509.79 332.188 1538.21 311.153 1579.76C290.125 1621.3 255.706 1675.92 201.344 1743.28L202.122 1743.91C256.519 1676.51 290.98 1621.82 312.045 1580.21C333.105 1538.61 340.794 1510.05 341.607 1494.9L340.609 1494.85ZM254.103 1288.63C273.889 1361.85 303.219 1431.15 340.677 1495.13L341.54 1494.62C304.126 1430.72 274.831 1361.5 255.068 1288.37L254.103 1288.63ZM254.088 1288.55L254.762 1295.05L255.757 1294.95L255.083 1288.44L254.088 1288.55ZM254.929 1294.62C201.833 1341.41 168.978 1380.49 147.326 1413.04C125.671 1445.6 115.23 1471.61 106.953 1492.23L107.881 1492.6C116.153 1472 126.563 1446.06 148.158 1413.6C169.755 1381.13 202.548 1342.11 255.59 1295.38L254.929 1294.62ZM106.953 1492.23C101.2 1506.56 96.5124 1518.23 89.8503 1527.71L90.6685 1528.29C97.4107 1518.69 102.14 1506.9 107.881 1492.6L106.953 1492.23ZM89.8503 1527.71C79.5069 1542.43 70.1994 1545.32 62.8452 1543.24C55.3992 1541.14 49.6853 1533.9 46.709 1527.78L45.8098 1528.22C48.8335 1534.43 54.7196 1541.99 62.5736 1544.21C70.5193 1546.45 80.2119 1543.17 90.6685 1528.29L89.8503 1527.71ZM46.6991 1527.76C30.0105 1496.94 27.1941 1458.58 33.8074 1416.6C40.4202 1374.62 56.4537 1329.05 77.4041 1283.86C119.305 1193.47 180.836 1104.64 225.831 1049L225.053 1048.37C180.023 1104.05 118.442 1192.96 76.4969 1283.44C55.5246 1328.68 39.452 1374.34 32.8196 1416.44C26.1878 1458.54 28.9872 1497.15 45.8197 1528.24L46.6991 1527.76ZM1075.26 216.5C611.491 216.5 234.42 587.466 224.942 1048.68L225.942 1048.7C235.409 588.031 612.036 217.5 1075.26 217.5V216.5ZM1768.5 573.946C1614.32 357.6 1361.28 216.5 1075.26 216.5V217.5C1360.94 217.5 1613.69 358.432 1767.68 574.527L1768.5 573.946ZM2083.64 476.59C1943.98 446.972 1827.98 514.04 1767.74 573.882L1768.44 574.591C1828.53 514.899 1944.21 448.043 2083.43 477.568L2083.64 476.59ZM2062.48 548.936C2083.9 547.383 2098.44 542.649 2107.55 536.239C2116.69 529.814 2120.39 521.706 2120.1 513.501C2119.81 505.325 2115.57 497.13 2108.98 490.476C2102.4 483.819 2093.44 478.668 2083.64 476.59L2083.43 477.568C2093.03 479.604 2101.82 484.654 2108.27 491.18C2114.73 497.708 2118.82 505.677 2119.1 513.537C2119.38 521.369 2115.87 529.17 2106.98 535.421C2098.07 541.686 2083.74 546.393 2062.41 547.939L2062.48 548.936ZM1858.74 735.503C1872.72 690.485 1908.42 647.204 1948.28 613.479C1988.15 579.751 2032.12 555.65 2062.56 548.926L2062.34 547.949C2031.68 554.722 1987.57 578.933 1947.64 612.716C1907.7 646.501 1871.85 689.931 1857.79 735.207L1858.74 735.503ZM1925.76 1066.47C1925.76 948.938 1901.89 836.974 1858.73 735.16L1857.8 735.55C1900.92 837.243 1924.76 949.075 1924.76 1066.47H1925.76ZM1859.98 1394.81C1902.35 1293.79 1925.76 1182.86 1925.76 1066.47H1924.76C1924.76 1182.73 1901.38 1293.53 1859.06 1394.43L1859.98 1394.81ZM1989.75 1875.91C1965.41 1748.14 1895.49 1507.57 1860 1394.47L1859.04 1394.77C1894.53 1507.87 1964.44 1748.39 1988.77 1876.09L1989.75 1875.91ZM1921.94 1909.38C1938.76 1923.6 1951.77 1930.86 1961.76 1933.17C1966.77 1934.32 1971.03 1934.24 1974.63 1933.14C1978.24 1932.04 1981.15 1929.94 1983.47 1927.12C1988.1 1921.49 1990.36 1913 1991.13 1903.81C1991.9 1894.6 1991.17 1884.62 1989.75 1875.92L1988.77 1876.08C1990.18 1884.72 1990.89 1894.62 1990.13 1903.73C1989.37 1912.85 1987.13 1921.09 1982.7 1926.48C1980.49 1929.17 1977.74 1931.15 1974.34 1932.18C1970.94 1933.22 1966.86 1933.32 1961.99 1932.19C1952.23 1929.94 1939.36 1922.8 1922.58 1908.62L1921.94 1909.38ZM1718.71 1621.28C1740.26 1660.02 1774.75 1718.26 1812.01 1773.69C1849.26 1829.12 1889.3 1881.79 1921.94 1909.38L1922.58 1908.62C1890.06 1881.13 1850.09 1828.56 1812.84 1773.13C1775.6 1717.73 1741.12 1659.52 1719.59 1620.8L1718.71 1621.28Z" fill="white"/>
<ellipse cx="1075.76" cy="1066" rx="806.5" ry="806" fill="#FFEFBE"/>
<path d="M625.024 1008.94C306.184 1118.66 123.206 1357.32 70.2489 1465.19C69.8483 1466.01 68.7623 1466.01 68.5469 1465.13C48.3615 1382.38 196.845 953.889 662.308 858.517C1015.55 786.138 1170.69 688.536 1212.01 641.203C1212.81 640.288 1214.76 641.566 1214.26 642.678C1131.13 830.497 1019.45 873.198 625.024 1008.94Z" fill="#009688"/>
<path d="M613.158 1175.58C555.049 1520.77 356.201 1686.16 259.545 1728.21C258.539 1728.65 257.77 1727.36 258.543 1726.58C402.622 1581.41 472.924 1285.53 490.18 1154.46C490.205 1154.28 490.286 1154.1 490.406 1153.96C571.52 1055.61 606.017 1127.06 613.162 1175.27C613.177 1175.37 613.175 1175.47 613.158 1175.58Z" fill="#00FFFF"/>
<path d="M903.148 1223.68C883.309 1298.83 834.47 1469.13 810.275 1552.7C809.945 1553.84 811.808 1554.72 812.48 1553.74C835.927 1519.55 909.061 1437.73 983.768 1223.68C1048.26 1038.89 937.35 989.022 873.832 987.189C832.911 985.966 738.611 990.122 688.773 1016.52C626.476 1049.52 558.683 1212.68 721.754 1132.02C884.825 1051.35 928.8 1126.52 903.148 1223.68Z" fill="#37C215"/>
<ellipse cx="647.259" cy="703.5" rx="128" ry="132.5" fill="#00FFFF"/>
<ellipse cx="1530.76" cy="751" rx="128.5" ry="132" fill="#FF007F"/>
<path d="M1837.68 665.701C1604.98 1374.65 1324.19 941.242 1209.99 629.281C1209.58 628.174 1211.11 627.471 1211.78 628.445C1308.94 771.076 1454.13 920.151 1537.13 920.151C1623.16 920.151 1687.29 779.438 1687.4 779.197C1687.4 779.193 1687.4 779.192 1687.41 779.191L1687.41 779.185C1799.76 515.546 1950.29 500.955 2042.74 517.794C2043.89 518.004 2043.76 519.726 2042.6 519.839C1940.26 529.736 1851.99 622.089 1837.68 665.701Z" fill="#FFCD41"/>
<path d="M1474.42 1106.14C1082.11 1304.32 1376.49 1562.32 1576.39 1668.84C1577.35 1669.34 1578.15 1668.04 1577.48 1667.19C1332.08 1355.91 1369.01 1398.76 1529.28 1197.84C1658.02 1036.45 1546.35 1069.46 1474.42 1106.14Z" fill="#E94816"/>
<path d="M1621.14 1271.71C1739.63 1577.25 1886.81 1806.14 1948.47 1886.4C1949.13 1887.26 1950.42 1886.61 1950.17 1885.57C1883.58 1615.87 1733.7 1087.37 1657.82 1096.11C1581.53 1104.89 1601.58 1216.84 1621.14 1271.71Z" fill="#FF007F"/>
</svg>
